<mxfile host="app.diagrams.net" modified="2024-03-14T13:10:48.403Z" agent="Mozilla/5.0 (X11; Linux x86_64) AppleWebKit/537.36 (KHTML, like Gecko) Chrome/120.0.0.0 Safari/537.36 Edg/120.0.0.0" etag="GfLO9CYwoQ9uT_rpEwmp" version="22.1.20" type="github">
  <diagram name="Page-1" id="w1RiLRw2TI5seXoHd45i">
    <mxGraphModel dx="660" dy="380" grid="1" gridSize="10" guides="1" tooltips="1" connect="1" arrows="1" fold="1" page="1" pageScale="1" pageWidth="850" pageHeight="1100" math="1" shadow="0">
      <root>
        <mxCell id="0" />
        <mxCell id="1" parent="0" />
        <mxCell id="2EfroOTCi2J_hcegwEJB-1" value="actor&lt;br&gt;&amp;nbsp;network&lt;br&gt;(MLP)" style="rounded=0;whiteSpace=wrap;html=1;" vertex="1" parent="1">
          <mxGeometry x="305" y="70" width="125" height="60" as="geometry" />
        </mxCell>
        <mxCell id="2EfroOTCi2J_hcegwEJB-2" value="critic network&lt;br&gt;(MLP)" style="rounded=0;whiteSpace=wrap;html=1;" vertex="1" parent="1">
          <mxGeometry x="306.25" y="170" width="122.5" height="70" as="geometry" />
        </mxCell>
        <mxCell id="2EfroOTCi2J_hcegwEJB-3" value="" style="endArrow=classic;html=1;rounded=0;" edge="1" parent="1">
          <mxGeometry width="50" height="50" relative="1" as="geometry">
            <mxPoint x="180" y="99.71" as="sourcePoint" />
            <mxPoint x="300" y="99.71" as="targetPoint" />
            <Array as="points" />
          </mxGeometry>
        </mxCell>
        <mxCell id="2EfroOTCi2J_hcegwEJB-4" value="observation" style="text;html=1;strokeColor=none;fillColor=none;align=center;verticalAlign=middle;whiteSpace=wrap;rounded=0;" vertex="1" parent="1">
          <mxGeometry x="210" y="70" width="60" height="30" as="geometry" />
        </mxCell>
        <mxCell id="2EfroOTCi2J_hcegwEJB-8" value="" style="group" vertex="1" connectable="0" parent="1">
          <mxGeometry x="175" y="180" width="120" height="30" as="geometry" />
        </mxCell>
        <mxCell id="2EfroOTCi2J_hcegwEJB-6" value="" style="endArrow=classic;html=1;rounded=0;" edge="1" parent="2EfroOTCi2J_hcegwEJB-8">
          <mxGeometry width="50" height="50" relative="1" as="geometry">
            <mxPoint y="29.99999999999997" as="sourcePoint" />
            <mxPoint x="120" y="29.99999999999997" as="targetPoint" />
            <Array as="points" />
          </mxGeometry>
        </mxCell>
        <mxCell id="2EfroOTCi2J_hcegwEJB-7" value="priv. observation" style="text;html=1;strokeColor=none;fillColor=none;align=center;verticalAlign=middle;whiteSpace=wrap;rounded=0;" vertex="1" parent="2EfroOTCi2J_hcegwEJB-8">
          <mxGeometry x="20" width="70" height="30" as="geometry" />
        </mxCell>
        <mxCell id="2EfroOTCi2J_hcegwEJB-9" value="" style="endArrow=classic;html=1;rounded=0;" edge="1" parent="1">
          <mxGeometry width="50" height="50" relative="1" as="geometry">
            <mxPoint x="440" y="100" as="sourcePoint" />
            <mxPoint x="550" y="100" as="targetPoint" />
          </mxGeometry>
        </mxCell>
        <mxCell id="2EfroOTCi2J_hcegwEJB-11" value="$$a_t$$" style="text;html=1;strokeColor=none;fillColor=none;align=center;verticalAlign=middle;whiteSpace=wrap;rounded=0;" vertex="1" parent="1">
          <mxGeometry x="460" y="70" width="60" height="30" as="geometry" />
        </mxCell>
        <mxCell id="2EfroOTCi2J_hcegwEJB-12" value="$$v_t$$" style="text;html=1;strokeColor=none;fillColor=none;align=center;verticalAlign=middle;whiteSpace=wrap;rounded=0;" vertex="1" parent="1">
          <mxGeometry x="460" y="180" width="60" height="30" as="geometry" />
        </mxCell>
        <mxCell id="2EfroOTCi2J_hcegwEJB-13" value="" style="endArrow=classic;html=1;rounded=0;" edge="1" parent="1">
          <mxGeometry width="50" height="50" relative="1" as="geometry">
            <mxPoint x="428.75" y="204.76" as="sourcePoint" />
            <mxPoint x="538.75" y="204.76" as="targetPoint" />
          </mxGeometry>
        </mxCell>
        <mxCell id="2EfroOTCi2J_hcegwEJB-14" value="PPO update&lt;br&gt;every 24 steps" style="rounded=1;whiteSpace=wrap;html=1;" vertex="1" parent="1">
          <mxGeometry x="570" y="120" width="120" height="60" as="geometry" />
        </mxCell>
      </root>
    </mxGraphModel>
  </diagram>
</mxfile>
